{"title":"HAr Har Bomkesh CAM x264 450MB[DeviLKinG]","uid":13083954,"size":473333404,"categoryP":"video","categoryS":"movies","magnet":"?xt=urn:btih:7f3c18c9d281520d4a966acbbb76279e6c5d9140&amp;dn=HAr+Har+Bomkesh+CAM+x264+450MB%5BDeviLKinG%5D&amp;tr=udp%3A%2F%2Ftracker.leechers-paradise.org%3A6969&amp;tr=udp%3A%2F%2Fzer0day.ch%3A1337&amp;tr=udp%3A%2F%2Fopen.demonii.com%3A1337&amp;tr=udp%3A%2F%2Ftracker.coppersurfer.tk%3A6969&amp;tr=udp%3A%2F%2Fexodus.desync.com%3A6969","seeders":0,"leechers":0,"uploader":"makintos13","files":1,"time":1450940914,"description":"screens:\r\n \nhttp://imgmak.com/Ku5\r\n \nhttp://imgmak.com/Ku1\r\n \nhttp://imgmak.com/KuU\r\n \nhttp://imgmak.com/Ku3\r\n \nhttp://imgmak.com/KuG\r\n\r\nGeneral \r\nHAr Har Bomkesh DvDScr x264 450MB[DeviLKinG]\r\nFormat : Matroska \r\nFormat version : Version 4 / Version 2 \r\nFile size : 451 MiB \r\nDuration : 1h 38mn \r\nOverall bit rate : 642 Kbps \r\nMovie name : DeviLKinG \r\nEncoded date : UTC 2015-12-21 11:54:17 / UTC 2015-12-20 14:53:19 \r\nWriting application : mkvmerge v7.4.0 ('Circles') 64bit built on Dec 12 2014 12:19:56 \r\nWriting library : libebml v1.3.0 + libmatroska v1.4.1 / Lavf54.59.106 \r\nEPISODE_SORT : 0 \r\nHD_VIDEO : 0 \r\nMEDIA_TYPE : 0 \r\nSEASON_NUMBER : 0 \r\n\r\nVideo \r\nID : 1 \r\nFormat : AVC \r\nFormat/Info : Advanced Video Codec \r\nFormat profile :    \r\nFormat settings, CABAC : No \r\nFormat settings, ReFrames : 2 frames \r\nCodec ID : V_MPEG4/ISO/AVC \r\nDuration : 1h 38mn \r\nBit rate : 512 Kbps \r\nWidth : 720 pixels \r\nHeight : 480 pixels \r\nDisplay aspect ratio : 16:9 \r\nFrame rate mode : Constant \r\nFrame rate : 29.970 (29970/1000) fps \r\nStandard : NTSC \r\nColor space : YUV \r\nChroma subsampling : 4:2:0 \r\nBit depth : 8 bits \r\nScan type : Progressive \r\nBits/(Pixel*Frame) : 0.049 \r\nStream size : 352 MiB (78%) \r\nTitle : DeviLKinG \r\nWriting library : x264 core 135 \r\nEncoding settings : cabac=0 / ref=2 / deblock=1:0:0 / analyse=0x1:0x111 / me=hex / subme=4 / psy=1 / psy_rd=1.00:0.00 / mixed_ref=0 / me_range=16 / chroma_me=1 / trellis=1 / 8x8dct=0 / cqm=0 / deadzone=21,11 / fast_pskip=1 / chroma_qp_offset=0 / threads=6 / lookahead_threads=1 / sliced_threads=0 / nr=0 / decimate=1 / interlaced=0 / bluray_compat=0 / constrained_intra=0 / bframes=0 / weightp=0 / keyint=250 / keyint_min=25 / scenecut=40 / intra_refresh=0 / rc_lookahead=20 / rc=abr / mbtree=1 / bitrate=512 / ratetol=1.0 / qcomp=0.60 / qpmin=0 / qpmax=69 / qpstep=4 / ip_ratio=1.40 / aq=1:1.00 \r\nDefault : Yes \r\nForced : No \r\nStatistics Tags Issue : mkvmerge v7.4.0 ('Circles') 64bit built on Dec 12 2014 12:19:56 2015-12-21 11:54:17 / mkvmerge v7.4.0 ('Circles') 64bit built on Dec 12 2014 12:19:56 2015-12-21 11:54:17 / UTC 2015-12-20 14:53:19 \r\nFromStats_BitRate : 512455 \r\nFromStats_Duration : 01:38:15.061000000 \r\nFromStats_FrameCount : 147409 \r\nFromStats_StreamSize : 377619414 \r\n\r\nAudio \r\nID : 2 \r\nFormat : MPEG Audio \r\nFormat version : Version 1 \r\nFormat profile : Layer 3 \r\nMode : Joint stereo \r\nMode extension : MS Stereo \r\nCodec ID : A_MPEG/L3 \r\nCodec ID/Hint : MP3 \r\nDuration : 1h 38mn \r\nBit rate mode : Constant \r\nBit rate : 128 Kbps \r\nChannel(s) : 2 channels \r\nSampling rate : 44.1 KHz \r\nCompression mode : Lossy \r\nDelay relative to video : -2ms \r\nStream size : 90.0 MiB (20%) \r\nTitle : DeviLKinG \r\nWriting library : LAME3.98.4 \r\nDefault : Yes \r\nForced : No \r\nStatistics Tags Issue : mkvmerge v7.4.0 ('Circles') 64bit built on Dec 12 2014 12:19:56 2015-12-21 11:54:17 / mkvmerge v7.4.0 ('Circles') 64bit built on Dec 12 2014 12:19:56 2015-12-21 11:54:17 / UTC 2015-12-20 14:53:19 \r\nFromStats_BitRate : 128000 \r\nFromStats_Duration : 01:38:15.043000000 \r\nFromStats_FrameCount : 225670 \r\nFromStats_StreamSize : 94320849","torrent":{"xt":"urn:btih:7f3c18c9d281520d4a966acbbb76279e6c5d9140","amp;dn":"HAr+Har+Bomkesh+CAM+x264+450MB%5BDeviLKinG%5D","amp;tr":["udp%3A%2F%2Ftracker.leechers-paradise.org%3A6969","udp%3A%2F%2Fzer0day.ch%3A1337","udp%3A%2F%2Fopen.demonii.com%3A1337","udp%3A%2F%2Ftracker.coppersurfer.tk%3A6969","udp%3A%2F%2Fexodus.desync.com%3A6969"],"infoHash":"7f3c18c9d281520d4a966acbbb76279e6c5d9140","infoHashBuffer":{"type":"Buffer","data":[127,60,24,201,210,129,82,13,74,150,106,203,187,118,39,158,108,93,145,64]},"announce":[],"urlList":[]}}